# 3ds Max Wavefront OBJ Exporter v0.97b - (c)2007 guruware
# 创建的文件:13.12.2013 18:22:45

#
# object default
#

v 1.000000 1.000000 -1.000000
v 1.000000 -1.000000 -1.000000
v -1.000000 -1.000000 -1.000000
v -1.000000 1.000000 -1.000000
v 1.000000 0.999999 1.000000
v 0.999999 -1.000001 1.000000
v -1.000000 -1.000000 1.000000
v -1.000000 1.000000 1.000000
# 507 vertices

vn 0.000000 0.000000 -1.000000
vn 0.000000 -0.000000 1.000000
vn 1.000000 -0.000000 0.000000
vn -0.000000 -1.000000 -0.000000
vn -1.000000 0.000000 -0.000000
vn 0.000000 1.000000 0.000000
# 1968 vertex normals


vt 0.432378 0.437791 0.0
vt 0.453000 0.440510 0.0
vt 0.604144 0.446636 0.0
vt 0.550395 0.458727 0.0
vt 0.440046 0.458727 0.0
vt 0.386297 0.446636 0.0
# 507 texture coords



g default
f 1/2/1 2/2/1 3/3/1 4/1/1
f 5/2/2 8/2/2 7/4/2 6/2/2
f 1/1/3 5/3/3 6/3/3 2/4/3
f 2/3/4 6/2/4 7/2/4 3/2/4
f 3/4/5 7/3/5 8/1/5 4/5/5
f 5/5/6 1/5/6 4/4/6 8/1/6
# 468 polygons - 32 triangles
