# Blender OBJ File: grid12x12tris.blend
# www.blender.org
mtllib grid12x12tris.mtl
o Grid_Grid.001
v 1.000000 -1.000000 0.000000
v 0.818182 -1.000000 0.000000
v 0.636364 -1.000000 0.000000
v 0.454545 -1.000000 0.000000
v 0.272727 -1.000000 0.000000
v 0.090909 -1.000000 0.000000
v -0.090909 -1.000000 0.000000
v -0.272727 -1.000000 0.000000
v -0.454545 -1.000000 0.000000
v -0.636364 -1.000000 0.000000
v -0.818182 -1.000000 0.000000
v -1.000000 -1.000000 0.000000
v -1.000000 -0.818182 0.000000
v -0.818182 -0.818182 0.000000
v -0.636364 -0.818182 0.000000
v -0.454545 -0.818182 0.000000
v -0.272727 -0.818182 0.000000
v -0.090909 -0.818182 0.000000
v 0.090909 -0.818182 0.000000
v 0.272727 -0.818182 0.000000
v 0.454545 -0.818182 0.000000
v 0.636364 -0.818182 0.000000
v 0.818182 -0.818182 0.000000
v 1.000000 -0.818182 0.000000
v 1.000000 -0.636364 0.000000
v 0.818182 -0.636364 0.000000
v 0.636364 -0.636364 0.000000
v 0.454545 -0.636364 0.000000
v 0.272727 -0.636364 0.000000
v 0.090909 -0.636364 0.000000
v -0.090909 -0.636364 0.000000
v -0.272727 -0.636364 0.000000
v -0.454545 -0.636364 0.000000
v -0.636364 -0.636364 0.000000
v -0.818182 -0.636364 0.000000
v -1.000000 -0.636364 0.000000
v -1.000000 -0.454545 0.000000
v -0.818182 -0.454545 0.000000
v -0.636364 -0.454545 0.000000
v -0.454545 -0.454545 0.000000
v -0.272727 -0.454545 0.000000
v -0.090909 -0.454545 0.000000
v 0.090909 -0.454545 0.000000
v 0.272727 -0.454545 0.000000
v 0.454545 -0.454545 0.000000
v 0.636364 -0.454545 0.000000
v 0.818182 -0.454545 0.000000
v 1.000000 -0.454545 0.000000
v 1.000000 -0.272727 0.000000
v 0.818182 -0.272727 0.000000
v 0.636364 -0.272727 0.000000
v 0.454545 -0.272727 0.000000
v 0.272727 -0.272727 0.000000
v 0.090909 -0.272727 0.000000
v -0.090909 -0.272727 0.000000
v -0.272727 -0.272727 0.000000
v -0.454545 -0.272727 0.000000
v -0.636364 -0.272727 0.000000
v -0.818182 -0.272727 0.000000
v -1.000000 -0.272727 0.000000
v -1.000000 -0.090909 0.000000
v -0.818182 -0.090909 0.000000
v -0.636364 -0.090909 0.000000
v -0.454545 -0.090909 0.000000
v -0.272727 -0.090909 0.000000
v -0.090909 -0.090909 0.000000
v 0.090909 -0.090909 0.000000
v 0.272727 -0.090909 0.000000
v 0.454545 -0.090909 0.000000
v 0.636364 -0.090909 0.000000
v 0.818182 -0.090909 0.000000
v 1.000000 -0.090909 0.000000
v 1.000000 0.090909 0.000000
v 0.818182 0.090909 0.000000
v 0.636364 0.090909 0.000000
v 0.454545 0.090909 0.000000
v 0.272727 0.090909 0.000000
v 0.090909 0.090909 0.000000
v -0.090909 0.090909 0.000000
v -0.272727 0.090909 0.000000
v -0.454545 0.090909 0.000000
v -0.636364 0.090909 0.000000
v -0.818182 0.090909 0.000000
v -1.000000 0.090909 0.000000
v -1.000000 0.272727 0.000000
v -0.818182 0.272727 0.000000
v -0.636364 0.272727 0.000000
v -0.454545 0.272727 0.000000
v -0.272727 0.272727 0.000000
v -0.090909 0.272727 0.000000
v 0.090909 0.272727 0.000000
v 0.272727 0.272727 0.000000
v 0.454545 0.272727 0.000000
v 0.636364 0.272727 0.000000
v 0.818182 0.272727 0.000000
v 1.000000 0.272727 0.000000
v 1.000000 0.454545 0.000000
v 0.818182 0.454545 0.000000
v 0.636364 0.454545 0.000000
v 0.454545 0.454545 0.000000
v 0.272727 0.454545 0.000000
v 0.090909 0.454545 0.000000
v -0.090909 0.454545 0.000000
v -0.272727 0.454545 0.000000
v -0.454545 0.454545 0.000000
v -0.636364 0.454545 0.000000
v -0.818182 0.454545 0.000000
v -1.000000 0.454545 0.000000
v -1.000000 0.636364 0.000000
v -0.818182 0.636364 0.000000
v -0.636364 0.636364 0.000000
v -0.454545 0.636364 0.000000
v -0.272727 0.636364 0.000000
v -0.090909 0.636364 0.000000
v 0.090909 0.636364 0.000000
v 0.272727 0.636364 0.000000
v 0.454545 0.636364 0.000000
v 0.636364 0.636364 0.000000
v 0.818182 0.636364 0.000000
v 1.000000 0.636364 0.000000
v 1.000000 0.818182 0.000000
v 0.818182 0.818182 0.000000
v 0.636364 0.818182 0.000000
v 0.454545 0.818182 0.000000
v 0.272727 0.818182 0.000000
v 0.090909 0.818182 0.000000
v -0.090909 0.818182 0.000000
v -0.272727 0.818182 0.000000
v -0.454545 0.818182 0.000000
v -0.636364 0.818182 0.000000
v -0.818182 0.818182 0.000000
v -1.000000 0.818182 0.000000
v -1.000000 1.000000 0.000000
v -0.818182 1.000000 0.000000
v -0.636364 1.000000 0.000000
v -0.454545 1.000000 0.000000
v -0.272727 1.000000 0.000000
v -0.090909 1.000000 0.000000
v 0.090909 1.000000 0.000000
v 0.272727 1.000000 0.000000
v 0.454545 1.000000 0.000000
v 0.636364 1.000000 0.000000
v 0.818182 1.000000 0.000000
v 1.000000 1.000000 0.000000
vt 0.909091 0.909091 0.0
vt 1.000000 0.909091 0.0
vt 1.000000 1.000000 0.0
vt 0.909091 1.000000 0.0
vt 0.818182 0.909091 0.0
vt 0.818182 1.000000 0.0
vt 0.727273 0.909091 0.0
vt 0.727273 1.000000 0.0
vt 0.636364 0.909091 0.0
vt 0.636364 1.000000 0.0
vt 0.545455 0.909091 0.0
vt 0.545455 1.000000 0.0
vt 0.454545 0.909091 0.0
vt 0.454545 1.000000 0.0
vt 0.363636 0.909091 0.0
vt 0.363636 1.000000 0.0
vt 0.272727 0.909091 0.0
vt 0.272727 1.000000 0.0
vt 0.181818 0.909091 0.0
vt 0.181818 1.000000 0.0
vt 0.090909 0.909091 0.0
vt 0.090909 1.000000 0.0
vt 0.000000 0.909091 0.0
vt 0.000000 1.000000 0.0
vt 0.000000 0.818182 0.0
vt 0.090909 0.818182 0.0
vt 0.181818 0.818182 0.0
vt 0.272727 0.818182 0.0
vt 0.363636 0.818182 0.0
vt 0.454545 0.818182 0.0
vt 0.545455 0.818182 0.0
vt 0.636364 0.818182 0.0
vt 0.727273 0.818182 0.0
vt 0.818182 0.818182 0.0
vt 0.909091 0.818182 0.0
vt 1.000000 0.818182 0.0
vt 0.909091 0.727273 0.0
vt 1.000000 0.727273 0.0
vt 0.818182 0.727273 0.0
vt 0.727273 0.727273 0.0
vt 0.636364 0.727273 0.0
vt 0.545455 0.727273 0.0
vt 0.454545 0.727273 0.0
vt 0.363636 0.727273 0.0
vt 0.272727 0.727273 0.0
vt 0.181818 0.727273 0.0
vt 0.090909 0.727273 0.0
vt 0.000000 0.727273 0.0
vt 0.000000 0.636364 0.0
vt 0.090909 0.636364 0.0
vt 0.181818 0.636364 0.0
vt 0.272727 0.636364 0.0
vt 0.363636 0.636364 0.0
vt 0.454545 0.636364 0.0
vt 0.545455 0.636364 0.0
vt 0.636364 0.636364 0.0
vt 0.727273 0.636364 0.0
vt 0.818182 0.636364 0.0
vt 0.909091 0.636364 0.0
vt 1.000000 0.636364 0.0
vt 0.909091 0.545455 0.0
vt 1.000000 0.545455 0.0
vt 0.818182 0.545455 0.0
vt 0.727273 0.545455 0.0
vt 0.636364 0.545455 0.0
vt 0.545455 0.545455 0.0
vt 0.454545 0.545455 0.0
vt 0.363636 0.545455 0.0
vt 0.272727 0.545455 0.0
vt 0.181818 0.545455 0.0
vt 0.090909 0.545455 0.0
vt 0.000000 0.545455 0.0
vt 0.000000 0.454546 0.0
vt 0.090909 0.454545 0.0
vt 0.181818 0.454545 0.0
vt 0.272727 0.454545 0.0
vt 0.363636 0.454545 0.0
vt 0.454545 0.454545 0.0
vt 0.545455 0.454545 0.0
vt 0.636364 0.454545 0.0
vt 0.727273 0.454545 0.0
vt 0.818182 0.454545 0.0
vt 0.909091 0.454545 0.0
vt 1.000000 0.454545 0.0
vt 0.909091 0.363636 0.0
vt 1.000000 0.363636 0.0
vt 0.818182 0.363636 0.0
vt 0.727273 0.363636 0.0
vt 0.636364 0.363636 0.0
vt 0.545455 0.363636 0.0
vt 0.454545 0.363636 0.0
vt 0.363636 0.363636 0.0
vt 0.272727 0.363636 0.0
vt 0.181818 0.363636 0.0
vt 0.090909 0.363636 0.0
vt 0.000000 0.363636 0.0
vt 0.000000 0.272727 0.0
vt 0.090909 0.272727 0.0
vt 0.181818 0.272727 0.0
vt 0.272727 0.272727 0.0
vt 0.363636 0.272727 0.0
vt 0.454545 0.272727 0.0
vt 0.545455 0.272727 0.0
vt 0.636364 0.272727 0.0
vt 0.727273 0.272727 0.0
vt 0.818182 0.272727 0.0
vt 0.909091 0.272727 0.0
vt 1.000000 0.272727 0.0
vt 0.909091 0.181818 0.0
vt 1.000000 0.181818 0.0
vt 0.818182 0.181818 0.0
vt 0.727273 0.181818 0.0
vt 0.636364 0.181818 0.0
vt 0.545455 0.181818 0.0
vt 0.454545 0.181818 0.0
vt 0.363636 0.181818 0.0
vt 0.272727 0.181818 0.0
vt 0.181818 0.181818 0.0
vt 0.090909 0.181818 0.0
vt 0.000000 0.181818 0.0
vt 0.000000 0.090909 0.0
vt 0.090909 0.090909 0.0
vt 0.181818 0.090909 0.0
vt 0.272727 0.090909 0.0
vt 0.363636 0.090909 0.0
vt 0.454545 0.090909 0.0
vt 0.545455 0.090909 0.0
vt 0.636364 0.090909 0.0
vt 0.727273 0.090909 0.0
vt 0.818182 0.090909 0.0
vt 0.909091 0.090909 0.0
vt 1.000000 0.090909 0.0
vt 0.909091 0.000000 0.0
vt 1.000000 0.000000 0.0
vt 0.818182 0.000000 0.0
vt 0.727273 0.000000 0.0
vt 0.636364 0.000000 0.0
vt 0.545455 0.000000 0.0
vt 0.454545 0.000000 0.0
vt 0.363636 0.000000 0.0
vt 0.272727 0.000000 0.0
vt 0.181818 0.000000 0.0
vt 0.090909 0.000000 0.0
vt 0.000000 0.000000 0.0
vn 0.000000 0.000000 1.000000
usemtl (null)
s off
f 122/1/1 121/2/1 144/3/1
f 122/1/1 144/3/1 143/4/1
f 123/5/1 122/1/1 143/4/1
f 123/5/1 143/4/1 142/6/1
f 124/7/1 123/5/1 142/6/1
f 124/7/1 142/6/1 141/8/1
f 125/9/1 124/7/1 141/8/1
f 125/9/1 141/8/1 140/10/1
f 126/11/1 125/9/1 140/10/1
f 126/11/1 140/10/1 139/12/1
f 127/13/1 126/11/1 139/12/1
f 127/13/1 139/12/1 138/14/1
f 128/15/1 127/13/1 138/14/1
f 128/15/1 138/14/1 137/16/1
f 129/17/1 128/15/1 137/16/1
f 129/17/1 137/16/1 136/18/1
f 130/19/1 129/17/1 136/18/1
f 130/19/1 136/18/1 135/20/1
f 131/21/1 130/19/1 135/20/1
f 131/21/1 135/20/1 134/22/1
f 132/23/1 131/21/1 134/22/1
f 132/23/1 134/22/1 133/24/1
f 109/25/1 110/26/1 131/21/1
f 109/25/1 131/21/1 132/23/1
f 110/26/1 111/27/1 130/19/1
f 110/26/1 130/19/1 131/21/1
f 111/27/1 112/28/1 129/17/1
f 111/27/1 129/17/1 130/19/1
f 112/28/1 113/29/1 128/15/1
f 112/28/1 128/15/1 129/17/1
f 113/29/1 114/30/1 127/13/1
f 113/29/1 127/13/1 128/15/1
f 114/30/1 115/31/1 126/11/1
f 114/30/1 126/11/1 127/13/1
f 115/31/1 116/32/1 125/9/1
f 115/31/1 125/9/1 126/11/1
f 116/32/1 117/33/1 124/7/1
f 116/32/1 124/7/1 125/9/1
f 117/33/1 118/34/1 123/5/1
f 117/33/1 123/5/1 124/7/1
f 118/34/1 119/35/1 122/1/1
f 118/34/1 122/1/1 123/5/1
f 119/35/1 120/36/1 121/2/1
f 119/35/1 121/2/1 122/1/1
f 98/37/1 97/38/1 120/36/1
f 98/37/1 120/36/1 119/35/1
f 99/39/1 98/37/1 119/35/1
f 99/39/1 119/35/1 118/34/1
f 100/40/1 99/39/1 118/34/1
f 100/40/1 118/34/1 117/33/1
f 101/41/1 100/40/1 117/33/1
f 101/41/1 117/33/1 116/32/1
f 102/42/1 101/41/1 116/32/1
f 102/42/1 116/32/1 115/31/1
f 103/43/1 102/42/1 115/31/1
f 103/43/1 115/31/1 114/30/1
f 104/44/1 103/43/1 114/30/1
f 104/44/1 114/30/1 113/29/1
f 105/45/1 104/44/1 113/29/1
f 105/45/1 113/29/1 112/28/1
f 106/46/1 105/45/1 112/28/1
f 106/46/1 112/28/1 111/27/1
f 107/47/1 106/46/1 111/27/1
f 107/47/1 111/27/1 110/26/1
f 108/48/1 107/47/1 110/26/1
f 108/48/1 110/26/1 109/25/1
f 85/49/1 86/50/1 107/47/1
f 85/49/1 107/47/1 108/48/1
f 86/50/1 87/51/1 106/46/1
f 86/50/1 106/46/1 107/47/1
f 87/51/1 88/52/1 105/45/1
f 87/51/1 105/45/1 106/46/1
f 88/52/1 89/53/1 104/44/1
f 88/52/1 104/44/1 105/45/1
f 89/53/1 90/54/1 103/43/1
f 89/53/1 103/43/1 104/44/1
f 90/54/1 91/55/1 102/42/1
f 90/54/1 102/42/1 103/43/1
f 91/55/1 92/56/1 101/41/1
f 91/55/1 101/41/1 102/42/1
f 92/56/1 93/57/1 100/40/1
f 92/56/1 100/40/1 101/41/1
f 93/57/1 94/58/1 99/39/1
f 93/57/1 99/39/1 100/40/1
f 94/58/1 95/59/1 98/37/1
f 94/58/1 98/37/1 99/39/1
f 95/59/1 96/60/1 97/38/1
f 95/59/1 97/38/1 98/37/1
f 74/61/1 73/62/1 96/60/1
f 74/61/1 96/60/1 95/59/1
f 75/63/1 74/61/1 95/59/1
f 75/63/1 95/59/1 94/58/1
f 76/64/1 75/63/1 94/58/1
f 76/64/1 94/58/1 93/57/1
f 77/65/1 76/64/1 93/57/1
f 77/65/1 93/57/1 92/56/1
f 78/66/1 77/65/1 92/56/1
f 78/66/1 92/56/1 91/55/1
f 79/67/1 78/66/1 91/55/1
f 79/67/1 91/55/1 90/54/1
f 80/68/1 79/67/1 90/54/1
f 80/68/1 90/54/1 89/53/1
f 81/69/1 80/68/1 89/53/1
f 81/69/1 89/53/1 88/52/1
f 82/70/1 81/69/1 88/52/1
f 82/70/1 88/52/1 87/51/1
f 83/71/1 82/70/1 87/51/1
f 83/71/1 87/51/1 86/50/1
f 84/72/1 83/71/1 86/50/1
f 84/72/1 86/50/1 85/49/1
f 61/73/1 62/74/1 83/71/1
f 61/73/1 83/71/1 84/72/1
f 62/74/1 63/75/1 82/70/1
f 62/74/1 82/70/1 83/71/1
f 63/75/1 64/76/1 81/69/1
f 63/75/1 81/69/1 82/70/1
f 64/76/1 65/77/1 80/68/1
f 64/76/1 80/68/1 81/69/1
f 65/77/1 66/78/1 79/67/1
f 65/77/1 79/67/1 80/68/1
f 66/78/1 67/79/1 78/66/1
f 66/78/1 78/66/1 79/67/1
f 67/79/1 68/80/1 77/65/1
f 67/79/1 77/65/1 78/66/1
f 68/80/1 69/81/1 76/64/1
f 68/80/1 76/64/1 77/65/1
f 69/81/1 70/82/1 75/63/1
f 69/81/1 75/63/1 76/64/1
f 70/82/1 71/83/1 74/61/1
f 70/82/1 74/61/1 75/63/1
f 71/83/1 72/84/1 73/62/1
f 71/83/1 73/62/1 74/61/1
f 50/85/1 49/86/1 72/84/1
f 50/85/1 72/84/1 71/83/1
f 51/87/1 50/85/1 71/83/1
f 51/87/1 71/83/1 70/82/1
f 52/88/1 51/87/1 70/82/1
f 52/88/1 70/82/1 69/81/1
f 53/89/1 52/88/1 69/81/1
f 53/89/1 69/81/1 68/80/1
f 54/90/1 53/89/1 68/80/1
f 54/90/1 68/80/1 67/79/1
f 55/91/1 54/90/1 67/79/1
f 55/91/1 67/79/1 66/78/1
f 56/92/1 55/91/1 66/78/1
f 56/92/1 66/78/1 65/77/1
f 57/93/1 56/92/1 65/77/1
f 57/93/1 65/77/1 64/76/1
f 58/94/1 57/93/1 64/76/1
f 58/94/1 64/76/1 63/75/1
f 59/95/1 58/94/1 63/75/1
f 59/95/1 63/75/1 62/74/1
f 60/96/1 59/95/1 62/74/1
f 60/96/1 62/74/1 61/73/1
f 37/97/1 38/98/1 59/95/1
f 37/97/1 59/95/1 60/96/1
f 38/98/1 39/99/1 58/94/1
f 38/98/1 58/94/1 59/95/1
f 39/99/1 40/100/1 57/93/1
f 39/99/1 57/93/1 58/94/1
f 40/100/1 41/101/1 56/92/1
f 40/100/1 56/92/1 57/93/1
f 41/101/1 42/102/1 55/91/1
f 41/101/1 55/91/1 56/92/1
f 42/102/1 43/103/1 54/90/1
f 42/102/1 54/90/1 55/91/1
f 43/103/1 44/104/1 53/89/1
f 43/103/1 53/89/1 54/90/1
f 44/104/1 45/105/1 52/88/1
f 44/104/1 52/88/1 53/89/1
f 45/105/1 46/106/1 51/87/1
f 45/105/1 51/87/1 52/88/1
f 46/106/1 47/107/1 50/85/1
f 46/106/1 50/85/1 51/87/1
f 47/107/1 48/108/1 49/86/1
f 47/107/1 49/86/1 50/85/1
f 26/109/1 25/110/1 48/108/1
f 26/109/1 48/108/1 47/107/1
f 27/111/1 26/109/1 47/107/1
f 27/111/1 47/107/1 46/106/1
f 28/112/1 27/111/1 46/106/1
f 28/112/1 46/106/1 45/105/1
f 29/113/1 28/112/1 45/105/1
f 29/113/1 45/105/1 44/104/1
f 30/114/1 29/113/1 44/104/1
f 30/114/1 44/104/1 43/103/1
f 31/115/1 30/114/1 43/103/1
f 31/115/1 43/103/1 42/102/1
f 32/116/1 31/115/1 42/102/1
f 32/116/1 42/102/1 41/101/1
f 33/117/1 32/116/1 41/101/1
f 33/117/1 41/101/1 40/100/1
f 34/118/1 33/117/1 40/100/1
f 34/118/1 40/100/1 39/99/1
f 35/119/1 34/118/1 39/99/1
f 35/119/1 39/99/1 38/98/1
f 36/120/1 35/119/1 38/98/1
f 36/120/1 38/98/1 37/97/1
f 13/121/1 14/122/1 35/119/1
f 13/121/1 35/119/1 36/120/1
f 14/122/1 15/123/1 34/118/1
f 14/122/1 34/118/1 35/119/1
f 15/123/1 16/124/1 33/117/1
f 15/123/1 33/117/1 34/118/1
f 16/124/1 17/125/1 32/116/1
f 16/124/1 32/116/1 33/117/1
f 17/125/1 18/126/1 31/115/1
f 17/125/1 31/115/1 32/116/1
f 18/126/1 19/127/1 30/114/1
f 18/126/1 30/114/1 31/115/1
f 19/127/1 20/128/1 29/113/1
f 19/127/1 29/113/1 30/114/1
f 20/128/1 21/129/1 28/112/1
f 20/128/1 28/112/1 29/113/1
f 21/129/1 22/130/1 27/111/1
f 21/129/1 27/111/1 28/112/1
f 22/130/1 23/131/1 26/109/1
f 22/130/1 26/109/1 27/111/1
f 23/131/1 24/132/1 25/110/1
f 23/131/1 25/110/1 26/109/1
f 2/133/1 1/134/1 24/132/1
f 2/133/1 24/132/1 23/131/1
f 3/135/1 2/133/1 23/131/1
f 3/135/1 23/131/1 22/130/1
f 4/136/1 3/135/1 22/130/1
f 4/136/1 22/130/1 21/129/1
f 5/137/1 4/136/1 21/129/1
f 5/137/1 21/129/1 20/128/1
f 6/138/1 5/137/1 20/128/1
f 6/138/1 20/128/1 19/127/1
f 7/139/1 6/138/1 19/127/1
f 7/139/1 19/127/1 18/126/1
f 8/140/1 7/139/1 18/126/1
f 8/140/1 18/126/1 17/125/1
f 9/141/1 8/140/1 17/125/1
f 9/141/1 17/125/1 16/124/1
f 10/142/1 9/141/1 16/124/1
f 10/142/1 16/124/1 15/123/1
f 11/143/1 10/142/1 15/123/1
f 11/143/1 15/123/1 14/122/1
f 12/144/1 11/143/1 14/122/1
f 12/144/1 14/122/1 13/121/1
