# Blender OBJ File: suzanne.blend
# www.blender.org
mtllib spheref.mtl
o Mesh_~tmp-mesh
v 0.000000 0.000000 -1.414214
v 1.023325 -0.743480 -0.632457
v -0.390867 -1.202987 -0.632457
v -1.264908 0.000000 -0.632457
v -0.390867 1.202987 -0.632457
v 1.023325 0.743480 -0.632457
v 0.390867 -1.202987 0.632457
v -1.023325 -0.743480 0.632457
v -1.023325 0.743480 0.632457
v 0.390867 1.202987 0.632457
v 1.264908 0.000000 0.632457
v 0.000000 0.000000 1.414214
vt 0.450001 0.352414 0.0
vt 1.134117 -0.000000 0.0
vt 0.650001 0.352414 0.0
vt 0.849999 0.352414 0.0
vt 0.250000 0.352416 0.0
vt 0.134117 -0.000000 0.0
vt 0.049999 0.352414 0.0
vt 1.049999 0.352414 0.0
vt 0.750000 0.647584 0.0
vt 0.549999 0.647586 0.0
vt 0.349999 0.647586 0.0
vt 0.150001 0.647586 0.0
vt 0.950001 0.647586 0.0
vt 1.150001 0.647586 0.0
vt 0.634117 1.000000 0.0
vn 0.187597 -0.577354 -0.794651
vn 0.607065 0.000000 -0.794652
vn -0.491122 -0.356829 -0.794652
vn -0.491122 0.356829 -0.794652
vn 0.187597 0.577354 -0.794651
vn 0.982246 0.000000 -0.187597
vn 0.303536 -0.934172 -0.187589
vn -0.794649 -0.577359 -0.187587
vn -0.794649 0.577359 -0.187587
vn 0.303536 0.934172 -0.187589
vn 0.794649 -0.577359 0.187587
vn -0.303536 -0.934172 0.187589
vn -0.982246 0.000000 0.187597
vn -0.303536 0.934172 0.187589
vn 0.794649 0.577359 0.187587
vn 0.491122 -0.356829 0.794652
vn -0.187597 -0.577354 0.794651
vn -0.607065 0.000000 0.794652
vn -0.187597 0.577354 0.794651
vn 0.491122 0.356829 0.794652
usemtl (null)
s off
f 3/1/1 1/2/1 2/3/1
f 2/3/2 1/2/2 6/4/2
f 4/5/3 1/6/3 3/1/3
f 5/7/4 1/6/4 4/5/4
f 6/4/5 1/2/5 5/8/5
f 2/3/6 6/4/6 11/9/6
f 3/1/7 2/3/7 7/10/7
f 4/5/8 3/1/8 8/11/8
f 5/7/9 4/5/9 9/12/9
f 6/4/10 5/8/10 10/13/10
f 11/9/11 7/10/11 2/3/11
f 7/10/12 8/11/12 3/1/12
f 8/11/13 9/12/13 4/5/13
f 9/14/14 10/13/14 5/8/14
f 10/13/15 11/9/15 6/4/15
f 7/10/16 11/9/16 12/15/16
f 8/11/17 7/10/17 12/15/17
f 9/12/18 8/11/18 12/15/18
f 10/13/19 9/14/19 12/15/19
f 11/9/20 10/13/20 12/15/20
